<svg xmlns="http://www.w3.org/2000/svg" xml:space="preserve" viewBox="0 0 56.7 56.7"><path d="M31 25.6c-1 0-2 .1-2.9.3-1.6.5-2.9 1.5-2.9 3.6 0 1.7.9 2.8 2.3 2.8l.5-.1a3 3 0 0 0 2.1-1.7c.9-1.3.9-2.5.9-4.1v-.8z"/><path d="M0 0v56.7h56.7V0H0zm42.2 37.7-.2-.1-.7-.1-1.2.1-1.2.2h-.1l-.5-.1a.8.8 0 0 1-.2-.5c0-.3.2-.5.4-.7l1.1-.6.3-.1.6-.2 1.7-.2a9 9 0 0 1 1.8.2l.4.3.2.8v.2c0 1.2-.5 3.3-2 4.6l-.6.2c-.2 0-.3 0-.5-.2a.8.8 0 0 1-.2-.5v-.3l.6-1.5.3-1.5c0 .1 0 0 0 0zM30.5 19.2c-.5-.7-1.3-1-2.2-1H28c-1.3.1-2.6.9-2.9 2.3-.1.3-.3.7-.7.7l-3.8-.5c-.3-.1-.7-.3-.5-.8.8-4.2 4.4-5.7 7.8-5.9h.8c1.9 0 4.3.5 5.8 1.9 1.9 1.7 1.7 4.1 1.7 6.6v6c0 1.8.7 2.6 1.5 3.5.2.3.3.7-.1 1-.7.7-2.1 1.9-3 2.5a1 1 0 0 1-.9.1c-1.3-1.1-1.5-1.5-2.2-2.5a8.7 8.7 0 0 1-3.6 2.5c-.8.2-1.7.3-2.8.3-3.2 0-5.8-2-5.8-6 0-3.1 1.7-5.3 4.2-6.3a15 15 0 0 1 4.4-1.1l2.9-.3V22c.2-.9.2-2-.3-2.8zm-2 22.1h.3c3.2-.1 6.6-.8 9.8-2.2l.3-.1.2-.1.5-.2.5-.1c.5 0 .9.4.9.9 0 .3-.2.6-.4.8l-1.2.8c-3.2 2-7.2 3.2-10.9 3.3h-.3c-5.7 0-9.9-3.1-13.7-6.4-.2-.1-.3-.4-.3-.6l.2-.5.5-.2.4.1c4.1 2.2 8.2 4.5 13.2 4.5z"/></svg>