<svg xmlns="http://www.w3.org/2000/svg" xml:space="preserve" viewBox="0 0 1000 1000"><path d="M1000 1000H0V0h1000v1000zM403 237c31-21 69-32 114-32 44 0 80 10 107 30 27 21 40 47 40 80 0 25-6 44-19 59-12 14-40 33-83 56-48 27-81 52-99 77-15 20-22 45-22 74 0 31 13 46 38 46 15 0 24-4 29-13 3-6 5-18 5-34 0-23 6-41 19-55s37-28 72-43l42-19c63-33 95-81 95-145 0-51-20-92-61-124-41-31-94-46-161-46s-122 16-165 49c-43 32-64 74-64 124 0 28 8 51 25 68 17 18 39 27 65 27 21 0 38-6 51-18 14-11 21-26 21-43 0-27-13-40-39-40-10 0-18 3-24 9-6 5-9 12-9 21v9c-15-10-23-23-23-39 0-30 16-56 46-78zm123 530c11-11 17-25 17-40 0-16-6-29-17-40a53 53 0 0 0-39-17c-16 0-29 5-40 16a55 55 0 0 0-17 41c0 15 6 29 17 40s24 16 40 16c15 0 29-5 39-16z"/></svg>