<svg xmlns="http://www.w3.org/2000/svg" xml:space="preserve" viewBox="0 0 800 800"><path d="M800 0v800H519.5c-12.4 0-18.3-7.7-19.8-15.8V667c0-38.2-12.8-63.2-27.2-75.9 89.1-10.2 182.7-44.8 182.7-202.4 0-44.8-15.5-81.4-41.2-110.1 4.2-10.3 17.9-52.1-3.9-108.5 0 0-33.5-11-109.9 42a372.3 372.3 0 0 0-200.3 0c-76.4-53-110-42-110-42-21.7 56.5-8 98.2-3.9 108.5a160.9 160.9 0 0 0-41.2 110.1c0 157.1 93.4 192.3 182.2 202.7-11.4 10.2-21.8 28.3-25.4 54.8-22.8 10.5-80.7 28.6-116.4-34.1 0 0-21.2-39.4-61.3-42.3 0 0-39-.5-2.7 24.9 0 0 26.2 12.6 44.4 60 0 0 23.5 73.2 134.8 48.4l.1 9.8v87H0V0h800z"/></svg>