<svg xmlns="http://www.w3.org/2000/svg" xml:space="preserve" viewBox="0 0 300 300"><path d="M233.5 86.8a36.5 36.5 0 0 0-20.4-20.4c-14.1-5.5-47.6-4.3-63.2-4.3s-49-1.3-63.2 4.3a36.5 36.5 0 0 0-20.4 20.4C60.8 100.9 62 134.4 62 150c0 15.6-1.2 49.1 4.3 63.2 3.7 9.3 11 16.7 20.4 20.4 14.1 5.5 47.5 4.3 63.2 4.3 15.6 0 49 1.3 63.1-4.3 9.3-3.7 16.7-11 20.4-20.4 5.6-14.1 4.3-47.6 4.3-63.2.1-15.6 1.4-49.1-4.2-63.2zM150 204.9c-41 0-71.4-44.8-45-88.1 3-4.8 7-8.9 11.9-11.9 43.3-26.4 88.1 4.1 88.1 45a55 55 0 0 1-55 55zm57.2-99.3c-8.5 0-15-8.2-12.2-17 4.9-13.8 25-9.9 25 4.2 0 7.1-5.7 12.8-12.8 12.8zm-57.2 8.7c-27.3 0-47.4 30.6-28 59.4 1.2 1.7 2.6 3.2 4.4 4.4 28.8 19.4 59.3-.7 59.3-28 0-19.8-16-35.8-35.7-35.8zm83.5-27.5a36.5 36.5 0 0 0-20.4-20.4c-14.1-5.5-47.6-4.3-63.2-4.3s-49-1.3-63.2 4.3a36.5 36.5 0 0 0-20.4 20.4C60.8 100.9 62 134.4 62 150c0 15.6-1.2 49.1 4.3 63.2 3.7 9.3 11 16.7 20.4 20.4 14.1 5.5 47.5 4.3 63.2 4.3 15.6 0 49 1.3 63.1-4.3 9.3-3.7 16.7-11 20.4-20.4 5.6-14.1 4.3-47.6 4.3-63.2.1-15.6 1.4-49.1-4.2-63.2zM150 204.9c-41 0-71.4-44.8-45-88.1 3-4.8 7-8.9 11.9-11.9 43.3-26.4 88.1 4.1 88.1 45a55 55 0 0 1-55 55zm57.2-99.3c-8.5 0-15-8.2-12.2-17 4.9-13.8 25-9.9 25 4.2 0 7.1-5.7 12.8-12.8 12.8zm-57.2 8.7c-27.3 0-47.4 30.6-28 59.4 1.2 1.7 2.6 3.2 4.4 4.4 28.8 19.4 59.3-.7 59.3-28 0-19.8-16-35.8-35.7-35.8zm0 0c-27.3 0-47.4 30.6-28 59.4 1.2 1.7 2.6 3.2 4.4 4.4 28.8 19.4 59.3-.7 59.3-28 0-19.8-16-35.8-35.7-35.8zm83.5-27.5a36.5 36.5 0 0 0-20.4-20.4c-14.1-5.5-47.6-4.3-63.2-4.3s-49-1.3-63.2 4.3a36.5 36.5 0 0 0-20.4 20.4C60.8 100.9 62 134.4 62 150c0 15.6-1.2 49.1 4.3 63.2 3.7 9.3 11 16.7 20.4 20.4 14.1 5.5 47.5 4.3 63.2 4.3 15.6 0 49 1.3 63.1-4.3 9.3-3.7 16.7-11 20.4-20.4 5.6-14.1 4.3-47.6 4.3-63.2.1-15.6 1.4-49.1-4.2-63.2zM150 204.9c-41 0-71.4-44.8-45-88.1 3-4.8 7-8.9 11.9-11.9 43.3-26.4 88.1 4.1 88.1 45a55 55 0 0 1-55 55zm57.2-99.3c-8.5 0-15-8.2-12.2-17 4.9-13.8 25-9.9 25 4.2 0 7.1-5.7 12.8-12.8 12.8zm-57.2 8.7c-27.3 0-47.4 30.6-28 59.4 1.2 1.7 2.6 3.2 4.4 4.4 28.8 19.4 59.3-.7 59.3-28 0-19.8-16-35.8-35.7-35.8zm0 0c-27.3 0-47.4 30.6-28 59.4 1.2 1.7 2.6 3.2 4.4 4.4 28.8 19.4 59.3-.7 59.3-28 0-19.8-16-35.8-35.7-35.8z"/><path d="M0 0v300h300V0H0zm256.4 194.2c-.7 37.3-24.9 61.5-62.2 62.2-17.7 1-70.7 1-88.4 0-17.2-.9-32.3-4.8-44.9-17.3-12.6-12.5-16.5-27.7-17.3-44.9-1-17.7-1-70.7 0-88.4.9-17.2 4.7-32.4 17.3-44.9 12.6-12.5 27.8-16.5 44.9-17.3 17.7-1 70.7-1 88.4 0 37.3.7 61.5 24.9 62.2 62.2 1 17.7 1 70.7 0 88.4z"/></svg>