<svg xmlns="http://www.w3.org/2000/svg" xml:space="preserve" viewBox="0 0 300 300">
  <path d="M234 87a37 37 0 0 0-21-21c-14-5-48-4-63-4s-49-1-63 4a37 37 0 0 0-21 21c-5 14-4 47-4 63s-1 49 4 63c4 9 11 17 21 21 14 5 47 4 63 4 15 0 49 1 63-4 9-4 17-11 20-21 6-14 5-47 5-63s1-49-5-63zm-84 118c-41 0-71-45-45-88 3-5 7-9 12-12 43-26 88 4 88 45a55 55 0 0 1-55 55zm57-99c-8 0-15-9-12-17 5-14 25-10 25 4 0 7-6 13-13 13zm-57 8c-27 0-47 31-28 60l4 4c29 20 60-1 60-28 0-20-16-36-36-36zm84-27a37 37 0 0 0-21-21c-14-5-48-4-63-4s-49-1-63 4a37 37 0 0 0-21 21c-5 14-4 47-4 63s-1 49 4 63c4 9 11 17 21 21 14 5 47 4 63 4 15 0 49 1 63-4 9-4 17-11 20-21 6-14 5-47 5-63s1-49-5-63zm-84 118c-41 0-71-45-45-88 3-5 7-9 12-12 43-26 88 4 88 45a55 55 0 0 1-55 55zm57-99c-8 0-15-9-12-17 5-14 25-10 25 4 0 7-6 13-13 13zm-57 8c-27 0-47 31-28 60l4 4c29 20 60-1 60-28 0-20-16-36-36-36zm0 0c-27 0-47 31-28 60l4 4c29 20 60-1 60-28 0-20-16-36-36-36zm84-27a37 37 0 0 0-21-21c-14-5-48-4-63-4s-49-1-63 4a37 37 0 0 0-21 21c-5 14-4 47-4 63s-1 49 4 63c4 9 11 17 21 21 14 5 47 4 63 4 15 0 49 1 63-4 9-4 17-11 20-21 6-14 5-47 5-63s1-49-5-63zm-84 118c-41 0-71-45-45-88 3-5 7-9 12-12 43-26 88 4 88 45a55 55 0 0 1-55 55zm57-99c-8 0-15-9-12-17 5-14 25-10 25 4 0 7-6 13-13 13zm-57 8c-27 0-47 31-28 60l4 4c29 20 60-1 60-28 0-20-16-36-36-36zm0 0c-27 0-47 31-28 60l4 4c29 20 60-1 60-28 0-20-16-36-36-36z"/>
  <path d="M0 0v300h300V0H0zm256 194c0 37-25 62-62 62h-88c-17-1-33-4-45-17a63 63 0 0 1-17-45v-88c0-17 4-33 17-45 12-13 28-17 45-17h88c37 0 62 24 62 62v88z"/>
</svg>
