<svg xmlns="http://www.w3.org/2000/svg" xml:space="preserve" viewBox="0 0 800 800"><path d="M400 424s-71 65-84 89l47-2v40c0 2 18 1 37 1s37 1 37-1v-40l47 1c-13-23-84-88-84-88zm0 0s-71 65-84 89l47-2v40c0 2 18 1 37 1s37 1 37-1v-40l47 1c-13-23-84-88-84-88zm0 0s-71 65-84 89l47-2v40c0 2 18 1 37 1s37 1 37-1v-40l47 1c-13-23-84-88-84-88zm0 0s-71 65-84 89l47-2v40c0 2 18 1 37 1s37 1 37-1v-40l47 1c-13-23-84-88-84-88zm0 0s-71 65-84 89l47-2v40c0 2 18 1 37 1s37 1 37-1v-40l47 1c-13-23-84-88-84-88z"/><path d="M800 0v199c0 44-41 82-77 82-45 0-82-37-82-80-4 106-154 107-158 0 0 44-39 80-83 80-45 0-83-37-83-80-4 107-154 105-158 0 0 43-37 80-82 80-36 0-77-38-77-82V0h800z" class="st0"/><path d="M706 305a93 93 0 0 1-62-44 93 93 0 0 1-161 0 93 93 0 0 1-80 46c-35 2-69-16-86-46v-1a93 93 0 0 1-160 1c-5 7-10 14-17 20a93 93 0 0 1-47 24H0v495h800V305h-94zm-76 376c-67-2-105-51-105-100-75 12-175 12-250 0 0 49-37 98-105 100-46 0-82-2-54-102l37-134c35-98 85-98 97-98 27 0 50 0 79 32 47-5 96-5 142 0 29-32 52-32 79-32 12 0 62 0 97 98l38 134c27 100-9 102-55 102z" class="st0"/></svg>