<?xml version="1.0" encoding="utf-8"?>

<svg version="1.1" id="Layer_1" xmlns="http://www.w3.org/2000/svg" xmlns:xlink="http://www.w3.org/1999/xlink" x="0px" y="0px"
	 viewBox="0 0 300 300" style="enable-background:new 0 0 300 300;" xml:space="preserve">
<style type="text/css">
	.st0{fill:#FFFFFF;}
	.st1{fill:#898989;}
</style>
<g>
	<path class="st0" d="M273.1,26.6C255.9,9.4,233.1,0,208.9,0c-24.3,0-47.1,9.4-64.2,26.6c-26.1,26.1-33.7,65-19.8,98.7L0.1,250
		L0,299.6l89.3,0.1v-34.4h34.4v-34.4h34.4V191l16.2-16.2c10.9,4.5,22.7,6.8,34.5,6.8c24.3,0,47.1-9.4,64.2-26.6
		C308.5,119.6,308.5,62,273.1,26.6z M260,141.9c-13.6,13.6-31.8,21.2-51.1,21.2c-11.2,0-22.4-2.6-32.4-7.6l-6-3l-30.9,30.9v29h-34.4
		v34.4H70.8v34.4l-52.2-0.1l0-23.4l128.6-128.6l-3-6c-13.9-27.9-8.5-61.4,13.5-83.4c13.6-13.6,31.8-21.2,51.1-21.2
		s37.4,7.5,51.1,21.2C288.1,67.9,288.1,113.7,260,141.9z"/>
</g>
<rect x="199.3" y="71.3" width="27.3" height="25.6"/>
<path class="st1" d="M201.2,84.4c-3.1,0-6.3,0-9.6,0c0.5-7.1,3.5-12.7,9.3-16.5c7.1-4.6,14.6-5.1,22-0.9c6.7,3.8,10.1,9.7,10.8,17.4
	c-3.3,0-6.4,0-9.6,0c-0.1-4-1.7-7.2-4.8-9.6c-2-1.5-4.2-2.4-6.8-2.3c-3.2,0.1-5.8,1.4-8,3.7C202.6,78.2,202.2,79.2,201.2,84.4z"/>
<path class="st0" d="M224.7,53.7c3.9-8.3,7.8-16.5,11.8-25c4.1,16.7,8.1,33,12.2,49.5c-1.6,0-3.1,0-4.6,0c-3.2,0-6.4,0-9.6,0
	c-3.4,0-6.8,0.1-10.2,0.1c-3.6,0-7.3-0.1-10.9-0.1c-6.3,0-12.7,0.1-19,0.1c-4.6,0-9.3-0.1-13.9-0.2c-0.4,0-0.8-0.3-1-0.6
	c-1.8-3-3.5-6.1-5.4-9.2c-0.4-0.6-0.3-1,0.1-1.5c5.4-6.9,12.4-11.5,20.7-14c9.6-2.9,19.2-2.7,28.7,0.5
	C223.9,53.5,224.3,53.6,224.7,53.7z"/>
<path class="st0" d="M171.8,103.4c0.3,0,0.6,0,0.9,0c5.2,0,10.5,0,15.7,0c0.5,0,1,0.2,1.4,0.4c9.7,6.1,19.3,12.3,29,18.5
	c0.8,0.5,1.4,1.1,2.3,1.7c0.2-0.2,0.4-0.4,0.6-0.6c5.8-6.5,11.7-12.9,17.5-19.4c0.4-0.5,0.9-0.7,1.5-0.7c3.8,0,7.7,0,11.5,0
	c0.3,0,0.6,0,1,0c-4.9,13.5-19.9,28-41.4,27.6C190.4,130.7,176.3,115.9,171.8,103.4z"/>
<path class="st0" d="M224.1,84.1c3.1,0,6.3,0,9.6,0c-0.5,7.1-3.5,12.7-9.3,16.5c-7.1,4.6-14.6,5.1-22,0.9
	c-6.7-3.8-10.1-9.7-10.8-17.4c3.3,0,6.4,0,9.6,0c0.1,4,1.7,7.2,4.8,9.6c2,1.5,4.2,2.4,6.8,2.3c3.2-0.1,5.8-1.4,8-3.7
	C222.7,90.3,223.1,89.2,224.1,84.1z"/>
</svg>
