<svg xmlns="http://www.w3.org/2000/svg" xml:space="preserve" viewBox="0 0 800 800"><path d="M515 322c-34 6-67-22-73-62-4-18-1-35 6-49h105c5 8 9 18 10 28 7 40-15 77-48 83zm-153-62c-7 40-39 68-73 62s-55-43-48-83c1-10 5-20 10-28h105c7 14 9 31 6 49z"/><path d="M402 1c126 0 193 55 216 153 23 97 29 148 14 186-21 53-83 79-121 91v59H307c-8 0-15-7-15-15v-44c-37-12-99-38-120-91-15-38-9-89 14-187C209 56 275 1 402 1H1v799h799V1H402zM88 766c-11 3-23-3-26-14l-12-42c-4-11 3-22 14-25l59-15 24 81-59 15zm113 34c-16 1-29-10-30-25-1-7 2-13 6-18l-33-108c-10-3-18-12-19-23-1-15 11-27 26-28 16-1 29 10 30 24 1 7-2 14-6 19l33 107c10 4 18 13 19 24 1 14-11 27-26 28zm428-25c-1 15-14 26-30 25-15-1-27-14-26-28 1-11 9-20 19-24l33-107c-4-5-7-12-6-19 1-14 14-25 30-24s27 13 26 28c-1 11-9 20-19 23l-33 108c4 5 7 11 6 18zm122-65-13 43c-3 10-14 16-25 13l-60-15 24-80 59 14c11 3 18 14 15 25zm-41-221a568 568 0 0 1-210 138c58 18 98 26 98 26l-23 69s-79-20-175-55c-96 35-175 55-175 55l-23-69s40-8 98-26c-85-37-168-85-210-138C6 380 48 292 48 292s7-15 15 14c51 144 206 234 337 286 131-52 287-142 337-286 9-29 15-14 15-14s43 88-42 197z" class="st0"/></svg>