<svg xmlns="http://www.w3.org/2000/svg" xml:space="preserve" viewBox="0 0 800 800"><path d="M552 239c-31-33-76-55-134-55-47 0-106 16-142 41v289c33 16 83 27 142 27 54 0 100-19 132-51 31-31 49-73 49-123 0-51-17-95-47-128zm0 0c-31-33-76-55-134-55-47 0-106 16-142 41v289c33 16 83 27 142 27 54 0 100-19 132-51 31-31 49-73 49-123 0-51-17-95-47-128zm0 0c-31-33-76-55-134-55-47 0-106 16-142 41v289c33 16 83 27 142 27 54 0 100-19 132-51 31-31 49-73 49-123 0-51-17-95-47-128z"/><path d="M0 0v800h800V0H0zm600 521c-46 36-107 56-175 56-77 0-149-28-149-28v91c13 4 35 12 21 26H193c-14-14 6-22 22-26V256c-36 27-54 50-63 67 11 34-9 32-9 32l-37-57s129-146 319-146c36 0 70 5 100 16 31 10 57 25 80 45 45 39 71 96 70 155 1 62-29 116-75 153z"/></svg>