<svg xmlns="http://www.w3.org/2000/svg" xml:space="preserve" viewBox="0 0 128 128"><path d="M54 62c-4 0-4 6 0 6 5 0 5-6 0-6zm0 33c5 0 5-7 0-7-4 0-4 7 0 7zm13-33c-4 0-4 6 0 6 5 0 5-6 0-6zm0 33c5 0 5-7 0-7-4 0-4 7 0 7zm-6-13c4-1 4-7 0-7-5 0-5 7 0 7zM41 62c-4 0-4 6 0 6s4-6 0-6zm0 26c-4 0-4 7 0 7s4-7 0-7zm26-33c7 0 12-3 15-8h16V16H37v31h15c3 5 9 8 15 8zM41 20h53v5H41v-5zm0 9h53v4H41v-4zm0 9h53v4H41v-4zm49 27c1 4 7 4 7 0s-7-4-7 0zM74 82c4-1 4-7 0-7s-4 7 0 7zm-26 0c4-1 4-7 0-7-5 0-5 7 0 7z"/><path d="M0 0v128h128V0H0zm120 38c0 2-2 4-4 4h-5v5c5 0 9 3 9 8v53c0 5-4 9-9 9H24c-5 0-9-4-9-9V55c0-5 4-9 9-9v-4h-5c-2 0-4-2-4-4v-5c0-2 2-4 4-4h5c0-5 4-9 8-9v-9h71v9c4 0 8 4 8 9h5c2 0 4 2 4 4v5z"/><path d="M94 88c-5 0-5 7 0 7 4 0 4-7 0-7zm6-13c-4 0-4 7 0 7 5 0 5-7 0-7zm7-13c-5 0-5 6 0 6 4 0 4-6 0-6zM81 95c4 0 4-7 0-7-5 0-5 7 0 7zm13 6H41c-2 0-3 2-3 4 0 1 1 3 3 3h53c4 0 4-7 0-7zM34 75c-4 0-4 7 0 7 5 0 5-7 0-7zm53 7c4-1 4-7 0-7s-4 7 0 7zm-6-20c-5 0-5 6 0 6 4 0 4-6 0-6zm-53 0c-4 0-4 6 0 6s4-6 0-6z"/></svg>